<svg width="344" height="110" viewBox="0 0 344 110" fill="none" xmlns="http://www.w3.org/2000/svg">
<path d="M274.8 73.5L287.6 29.3L300.8 73.5H274.8ZM305.3 2H270.9L232.8 108.1H264.8L268.9 93.8H306.2L310.5 108.1H343.5L305.3 2Z" fill="#243E8E"/>
<path d="M167.7 2V108.1H201.2V69.8H224.4L233.5 46.6H201.2V25.1H240.5L249.1 2H167.7Z" fill="#243E8E"/>
<path d="M111.9 2H144.8V108.1H111.9V2Z" fill="#243E8E"/>
<path d="M0.600006 73L31.8 71C32.5 76.1 33.8 79.9 35.9 82.6C39.3 86.9 44.1 89 50.4 89C55.1 89 58.7 87.9 61.2 85.7C63.7 83.5 65 81 65 78.1C65 75.3 63.8 72.9 61.4 70.7C59 68.5 53.4 66.5 44.6 64.5C30.2 61.3 20 57 13.8 51.6C7.60001 46.2 4.50001 39.4 4.50001 31.1C4.50001 25.6 6.1 20.5 9.2 15.6C12.4 10.8 17.1 6.9 23.5 4.2C29.8 1.4 38.5 0 49.6 0C63.2 0 73.5 2.5 80.6 7.6C87.7 12.6 91.9 20.7 93.3 31.7L62.4 33.5C61.6 28.7 59.9 25.2 57.2 23.1C54.6 20.9 50.9 19.8 46.3 19.8C42.5 19.8 39.6 20.6 37.7 22.2C35.8 23.8 34.8 25.8 34.8 28.1C34.8 29.8 35.6 31.3 37.2 32.7C38.7 34.1 42.4 35.4 48.2 36.6C62.5 39.7 72.8 42.8 79 46C85.2 49.2 89.7 53.1 92.5 57.8C95.3 62.5 96.7 67.7 96.7 73.5C96.7 80.3 94.8 86.6 91.1 92.3C87.3 98 82.1 102.4 75.3 105.4C68.5 108.4 60 109.9 49.8 109.9C31.8 109.9 19.3 106.4 12.3 99.5C5.40001 92.5 1.50001 83.7 0.600006 73Z" fill="#243E8E"/>
</svg>
